<svg id="Layer_1" data-name="Layer 1" xmlns="http://www.w3.org/2000/svg" viewBox="0 0 1048.02 234.85"><defs><style>.cls-1{fill:#00a99d;stroke:#0071bc;stroke-miterlimit:10;}</style></defs><title>tomasz2</title><path class="cls-1" d="M171.9,402c-4.16,0-15.16-3.17-33.63-9.69-11.89-4.1-15.31-5.82-16.58-6.73a7.66,7.66,0,0,1-1.3.12c-1.49,0-4-.59-4.35-4.54-.56-8.29-.89-19.41-1-33.08-.22-16.63-.44-27.73-.66-33-.11-3.55-.11-9.37,0-17.31a165,165,0,0,0-.17-17.16c-.63-10.84-.76-18.05-.4-22a12.74,12.74,0,0,1-3.67-2.33,4.62,4.62,0,0,1-2.12-.8c-2.42-1.58-8.5-3.43-18.07-5.5-8.16-1.63-13.87-4.34-17-8l-.43,0a4.24,4.24,0,0,1-4.24-3.24c-.92-2.78-1.48-8.79-1.7-18.38-.11-1.81-.45-5.25-1-10.2A63.21,63.21,0,0,1,65,199.73a4.81,4.81,0,0,1,1.67-3.46c.15-2.36,1.35-3.82,3.44-4.2a4.32,4.32,0,0,1,2.34-4.27,10.76,10.76,0,0,1,1.23-.7,4.3,4.3,0,0,1,2.1-.57,3.87,3.87,0,0,1,1.21.19,72,72,0,0,1,7.2-3.3l9.52-4,2.58-1.1c6.08-2.54,11.73-4.72,16.82-6.49a3.56,3.56,0,0,1,1.45-.31,3.23,3.23,0,0,1,1.26.26,4.31,4.31,0,0,1,2.57,1c3.52,3.2,13.9,6.19,30.87,8.91,10.06,1.55,24.14,4.34,41.86,8.3,11.38,2.55,25.87,6.63,43.05,12.13,14.31,4.55,24.19,9,29.35,13.12a3.65,3.65,0,0,1,.75,5.55,3.32,3.32,0,0,1-.21,1.41c0,18,.78,31.49,2.3,40.09a4.78,4.78,0,0,1-2.07,5.14l-.26.18h-.06l-.15.15-.15.07a3.92,3.92,0,0,1-1.53.43,12,12,0,0,1-3.72,1.13,5.9,5.9,0,0,1-1.32,1.06c-13.45,7.23-24.15,11.62-31.84,13.06a5.69,5.69,0,0,1-1,.1,4.26,4.26,0,0,1-4-2.47c-3.77-.4-7.94-.94-12.4-1.61a85.92,85.92,0,0,0-.37,11.27c.12,7.92.17,11.53.17,12.47l-.13,5.91c-.44,19.91-.52,23.54-.54,24.25h0c.44,14.89.55,23.55.32,26.48-.86,12.71-.48,15.1-.28,15.53a4.63,4.63,0,0,1,0,4.61,5.12,5.12,0,0,1-2.69,2.08c.31,2.32-.79,4-3.17,4.85a43.36,43.36,0,0,0-8.59,4.39,63.64,63.64,0,0,1-8.62,4.89c-3.91,1.71-6.41,2.77-7.58,3.19a4.17,4.17,0,0,1-4.07,2.52ZM127,377.72c.47.43,3.3,2,19.06,7.38,11.7,4.13,16.76,5.92,19,6.72-.17-1.3-.3-2.74-.38-4.3a2.35,2.35,0,0,1-.29-3.2,1.37,1.37,0,0,1,.3-.53,18.86,18.86,0,0,0,.13-2.55c.12-1.42.17-2.26.17-2.66.33-11.11.16-22-.5-32.28s-.77-38.17-.66-83c0-2.89,1.65-4.48,4.65-4.48s4.65,1.59,4.65,4.48v.2l3.12,1.49L194,268c10.35,1.76,19.06,3.05,25.91,3.84l-1-8.54c-.56-4.08-.9-7.35-1-9.69a71.57,71.57,0,0,1,0-11.75c-6.82-1.8-30.95-8.86-71.81-21-10.76-3.26-34.92-9.51-71.84-18.59.08,2.1.35,4.91.8,8.38a84.16,84.16,0,0,1,.83,9.75c0,5.67.13,9.59.38,11.68a3.85,3.85,0,0,1,2.85,2.33c.94,1.82,4.74,4.65,17.4,7.57,8,1.8,13.29,3.63,16.2,5.59h.19A4.09,4.09,0,0,1,116,248.9c1.39.74,2.81,1.48,4.25,2.2a4.55,4.55,0,0,1,3.24,5.59,64.17,64.17,0,0,0-.65,15c.56,9.06.84,14.13.84,15.48-.12,13.23-.06,23.77.16,31.32.22,5.18.39,14.95.5,29.05.21,11.82.48,21.36.8,28.37A4.58,4.58,0,0,1,127,377.72Zm46.91,3.22a40.06,40.06,0,0,0-.17,6.05l23.78-21.16c.24-2.81.29-3.64.29-3.83.11-1.61.15-4.51.13-8.67-1.67,3.05-5.7,7.52-12.22,13.55A101.9,101.9,0,0,0,173.91,380.94Zm23.32-7.31c-5.74,5.15-10.31,9.23-13.78,12.29,7.36-4.36,12.16-6.92,14.66-7.82A16.31,16.31,0,0,1,197.23,373.63ZM174.61,363c.08,2.71.09,5.17,0,7.33,1.57-1.9,3-3.53,4.37-4.87,12.27-12.13,14-14.67,14.19-15.21a2.53,2.53,0,0,1,2.5-2,4.34,4.34,0,0,1,1,.15,3.5,3.5,0,0,1,1.15.53q-.06-4.83-.2-11.23C185.27,350.68,177.51,359.17,174.61,363ZM174,347.89c.15,2.13.27,4.28.37,6.43,3.44-3.83,10.52-11.33,21.11-22.38a2.59,2.59,0,0,1,2-1h.09q0-3.06.09-6.66c-2.47,2.55-6.21,6.21-11.18,10.92A135.57,135.57,0,0,0,174,347.89Zm-.84-17.2c.1,3.26.21,6.1.32,8.54a5.23,5.23,0,0,0,.06.74c2.65-2.83,6.57-6.7,11.69-11.54A159.06,159.06,0,0,0,198,315.5c.16-3.63.26-6.65.3-9-.86.74-1.86,1.58-3,2.52-2.19,1.75-3.79,3.08-4.79,4C187.81,315.26,182,321.21,173.12,330.69Zm-.25-8c5.46-6,9.55-10.18,12.18-12.5.66-.56,2.88-2.35,7-5.67,2.56-2.05,4.66-3.88,6.25-5.43-.13-4.73-.22-8.29-.27-10.39-2.95,2.65-6.88,6.71-11.74,12.12-5.42,6.18-10,10.68-13.66,13.39ZM172.74,299q-.11,3.9-.12,7.79a152.36,152.36,0,0,0,11.84-12.28c5.37-6,10-10.44,13.72-13.15.08-1.19.19-2.29.32-3.28l-2.65-.42c-1,1-3.67,3.09-11.89,8.87-4.77,3.5-7.77,7-8.91,10.45A2.42,2.42,0,0,1,172.74,299Zm.17-14.73c-.06,2.78-.1,5-.12,6.59,2-1.77,6.46-5.71,16-14.23l-4.67-.64-5.2,5-4.23,2.71a2.71,2.71,0,0,1-1.56.53Zm.13-10.77Q173,275.43,173,278c1.3-1,2.7-2.09,4.17-3.38C175.68,274.28,174.31,273.9,173,273.48Zm55.81-4.32c.16,1.37.29,2.59.39,3.62a71.68,71.68,0,0,0,7.28-2.61,2.65,2.65,0,0,1-.26-.5,2.9,2.9,0,0,1,.32-2.37c.3-.54,1.07-1.95,18.92-18.34-.13-1.58-.24-3.11-.33-4.57-1.26,1.3-2.86,2.78-4.79,4.41-3.17,2.63-5.38,4.56-6.57,5.75-10.54,10.92-13.07,13.62-13.33,14l-.76-.59-.05,0,.44.9A3,3,0,0,1,228.85,269.16ZM256.05,256a141.08,141.08,0,0,0-11.75,10.6c2.29-1.14,5-2.52,8.08-4.14a4.3,4.3,0,0,1,1.06-.5,4.66,4.66,0,0,1,3.19-1.76C256.41,259,256.22,257.54,256.05,256Zm-28.75.46a15.68,15.68,0,0,0,.33,2.06l0,.12v.12c.08,1,.28,2.62.59,4.69a24.4,24.4,0,0,0,6.24-6.05,76.25,76.25,0,0,1,6.6-7.93c9.65-8.88,12.84-12.57,13.75-14.09-.08-1.72-.13-3.56-.14-5.49-2.19,1.26-4.75,2.61-7.64,4a2.37,2.37,0,0,1,.34,1,2.75,2.75,0,0,1-1,2.18c-13.38,13.52-17,17.42-17.65,18.31A2.81,2.81,0,0,1,227.3,256.44Zm0-14.63c-.51,1.14-.94,3.32-.69,7.49,2.06-2.38,5.43-5.88,10.18-10.57A51.22,51.22,0,0,1,227.34,241.81Zm-9.77-9.7c2.4.62,4.11,1,5.1,1.27a3.72,3.72,0,0,1,1.69-.44,1.38,1.38,0,0,1,.45-.08h.2c3.55-.74,8.81-2.8,15.66-6.12a113.31,113.31,0,0,0,12.93-7.18,72.31,72.31,0,0,0-11.68-5.72C226.55,225,220.07,230,217.57,232.11Zm-15.69-4.25c3.21.92,6.36,1.79,9.39,2.6,3.09-3.67,10.94-9.87,23.95-18.91-2.59-.8-5.84-1.71-9.7-2.7a82.6,82.6,0,0,1-12.19,10.31C208,223,204.2,226,201.88,227.86Zm-11.8-3.4c1.52.45,3.3.95,5.33,1.52l0,0c2.47-2.24,6.74-5.61,12.72-10a102.14,102.14,0,0,0,11.12-8.83l-4.16-1.19-.55-.18-4-1a63.14,63.14,0,0,0-12.72,8.81c-6.43,5.65-7.8,8.84-7.8,10.54A1.7,1.7,0,0,1,190.08,224.46Zm-9.82-3c1,.34,2.45.78,4.15,1.31.4-3.75,3.23-7.91,8.6-12.67a105.08,105.08,0,0,1,10-7.64l-6.28-1.59C185.87,214.67,181.89,219.68,180.26,221.49Zm-11.44-3.56,5.7,1.79c.64-1.15,3.31-4.87,16.18-20.18-1.58-.36-3.13-.71-4.62-1C180.08,202.58,174.28,209.1,168.82,217.93Zm-18-5.49c3.24,1,7.39,2.26,12.35,3.73,5-8.28,10.28-14.77,15.62-19.33l-6.74-1.4c-1.78-.36-4-.79-6.55-1.27a2.61,2.61,0,0,1-1.15,3.28A47.59,47.59,0,0,0,150.84,212.44Zm-19.92-5.79c4.76,1.37,9.56,2.78,14.3,4.2a52.23,52.23,0,0,1,15.35-17.58q-5.1-.92-11.8-2.07l-.17.06C140.32,196.66,134.38,201.84,130.92,206.65ZM112.5,202c4.1,1,8.3,2.09,12.53,3.22,3.24-5.15,8.47-10.34,15.59-15.47-1.88-.29-3.35-.56-4.4-.8-3.33-.61-6-1.16-8-1.67A61,61,0,0,1,112.5,202ZM97.94,198.3l6.67,1.69a2.33,2.33,0,0,1,.59-.32,51.41,51.41,0,0,0,17.16-14,37.15,37.15,0,0,1-7.44-3.71,3.68,3.68,0,0,1-1,.4,4.13,4.13,0,0,0-1,.26l-.21.1h-.05a4.66,4.66,0,0,1-1,1.17,4.29,4.29,0,0,1,.32.47,2.5,2.5,0,0,1-1,3.71C110.14,188.53,107.12,190.73,97.94,198.3Zm-15.39-3.68,8.39,2.08c1.36-1,4.12-3.33,8.2-6.81a65.49,65.49,0,0,1,7.4-5.71h0l-.15.07-17,7.16c-.18.07-.81.33-4.42,2.13C84.11,193.94,83.31,194.3,82.55,194.62Z" transform="translate(-64.42 -170.98)"/><path class="cls-1" d="M360,396.38a68.19,68.19,0,0,1-30.59-7.11c-13.58-6.85-22.77-17.15-27.33-30.63a5.35,5.35,0,0,1-.74-.17c-9.09-3.45-15.1-12.91-17.92-28.14-3.56-18.78-2.65-35.42,2.7-49.47,8.14-21.06,21.1-35.59,38.53-43.19,14.17-6.22,27.2-9.38,38.75-9.38a54,54,0,0,1,23.45,5.08c9.69,4.57,22.65,17.93,38.51,39.7a3.46,3.46,0,0,1,1.93,1.73c16.89,28.44,18.79,54.84,5.62,78.4-.78,1.44-1.74,3.07-2.85,4.85a10.36,10.36,0,0,1-1.23,1.92,76.78,76.78,0,0,1-12.49,14.66,16.41,16.41,0,0,1-1.51,1.71,1.59,1.59,0,0,1-.79.39c-9.88,8.47-22,14.39-36,17.59A83.41,83.41,0,0,1,360,396.38ZM348.05,264.25a4.09,4.09,0,0,1-2.19,1.35c-13.19,3.64-24.07,17.33-32.31,40.66-7.95,22.75-8.8,41.14-2.53,54.65,8,16.6,22.6,25.84,43.46,27.46,1.85.13,3.71.2,5.53.2,14.56,0,28.51-4.31,41.45-12.81,9.72-6.56,12.28-8.21,13.07-8.67,4.61-5.79,9-11.67,13.11-17.47,1.18-4.21,2.34-8.24,3.44-12,5.18-17.4,2.07-36.44-9.27-56.6-.4-.32-.77-.64-1.1-1l-.12-.12c-9.36-7.07-18.17-12-26.19-14.57a49.94,49.94,0,0,0-15.19-2.18c-1,0-2.12,0-3.19.07-15.5.85-19.2,1.09-19.57,1.14l0-.32v.35c-1.17,0-2.23,0-3.19,0A37.18,37.18,0,0,1,348.05,264.25ZM296,343.87a18.47,18.47,0,0,0,3.76,4.77c-.12-.85-.21-1.69-.26-2.5-.08-1-.13-2.05-.15-3.17A13.52,13.52,0,0,1,296,343.87Zm-1.4-3.94h.07a3.12,3.12,0,0,0,.54,0,8.45,8.45,0,0,0,4-1.29,86,86,0,0,1,.95-12c-.81.55-1.68,1.11-2.59,1.65a33.19,33.19,0,0,1-6.11,3c.17.69.42,1.7.76,3a41.4,41.4,0,0,0,2,5.57l.33,0Zm-5.05-15.38c.18.72.47,1.7.85,2.94a24.33,24.33,0,0,0,5.91-3,43.88,43.88,0,0,0,4.93-3.66c.52-2.64,1.17-5.37,1.95-8.14-9.71,5-12.81,6.88-13.72,7.54a2.57,2.57,0,0,1,.08.62Zm-.35-15.62c0,.43,0,.86,0,1.29l.12,5.26c2.58-1.62,7.69-4.29,15.48-8.11.86-2.56,1.81-5.2,2.84-7.88a48,48,0,0,1-4.23,2.69c-6.34,2.95-10.46,5.15-12.28,6.54l0,0,0,0a2.14,2.14,0,0,1-1.09.33A1.83,1.83,0,0,1,289.2,308.93ZM290.26,295a85,85,0,0,0-1,10.23,36.15,36.15,0,0,1,7.35-4,78.94,78.94,0,0,0,7.51-3.75c4-2.71,5.63-3.86,6.31-4.34a96.65,96.65,0,0,1,6.2-11.72A121.63,121.63,0,0,0,305,288C299.19,291.74,294.23,294.07,290.26,295Zm2.83-10.62c-.7,2.14-1.31,4.28-1.84,6.37,3.49-1.14,8.08-3.5,13.69-7.05,6.67-4.38,11.76-7,15.53-8,6.86-9.31,14.66-15.17,23.2-17.45a4.45,4.45,0,0,1,2.37-2.32,3.68,3.68,0,0,1,1.66-.44,2.56,2.56,0,0,1,2.15,1.18h.06c1.86-1.38,6.14-2.94,13-4.78,1.77-.44,5.88-1.61,12.25-3.47a106.41,106.41,0,0,1,12.21-3.18,3,3,0,0,1,.49,0,1.78,1.78,0,0,1,1.82,1.43,1.91,1.91,0,0,1-.12,1.58,1.87,1.87,0,0,1-1.35.83c-2.59.54-6.14,1.48-10.49,2.79-5.4,1.68-8.89,2.72-10.66,3.16-2,.51-3.74,1-5.2,1.34,6.75-.31,11.61-.52,14.62-.63a1.78,1.78,0,0,1,.67-.58c6.62-3.46,12.78-5.37,18.33-5.7a61.46,61.46,0,0,0-11.24-7.95c-13,2.66-29,8.8-47.32,18.25-3.09,1.54-7.14,3.77-12.07,6.61-6.09,3.57-9.84,5.73-11.79,6.81q-3.18,1.68-9,4.66c-3.69,1.9-6.57,3.42-8.58,4.51a1.93,1.93,0,0,1-1.29,1.5l-1.13.57Zm9.72-18.6a84.27,84.27,0,0,0-7,12c1.81-.91,4.46-2.27,7.91-4.07,4.28-2.19,7.78-4.08,10.41-5.61,11.36-6.84,19.54-11.38,24.32-13.49,17.37-7.94,30.82-13.23,40-15.74a36.38,36.38,0,0,0-8.76-2.14,2,2,0,0,1-1.07,1.11c-1.51.81-5.83,2-13.18,3.57A93.15,93.15,0,0,0,341.18,246a153.55,153.55,0,0,0-18.29,8.73c-8.47,4.84-14.06,8-16.62,9.31l-.22.11H306c-.14.07-.5.24-1.33.71A19.87,19.87,0,0,1,302.81,265.77Zm82.89-10.13a60.09,60.09,0,0,1,22.09,6.83,108.57,108.57,0,0,0-8.7-9.73,1.77,1.77,0,0,1-1.39.61h-.55A33.26,33.26,0,0,0,385.7,255.64ZM359.86,236.4c-21,.6-38,7.78-50.49,21.34,1.86-1,4.29-2.31,7.23-3.94,3.57-2.12,6-3.49,7.33-4.17a128.56,128.56,0,0,1,16-7.33,78.21,78.21,0,0,1,14.61-4.86C356.55,237.08,358.32,236.74,359.86,236.4Zm6.21,117a20.36,20.36,0,0,1-2.68-.19c-7-1.05-12-5.51-14.74-13.26a33.18,33.18,0,0,1,0-22.91c2-5.73,7.66-11.83,16.76-18.13a3.47,3.47,0,0,1,3.53-3.09,28,28,0,0,1,2.87-.15c11.05,0,17.14,6.89,18.09,20.48,1.13,13.52-2.32,24.12-10.26,31.49C375.52,351.45,371,353.39,366.07,353.39Zm-6.15-10a7.31,7.31,0,0,0,1.54,1.11.16.16,0,0,0,0-.07,1.92,1.92,0,0,1,1.86-.87h.22c2.68,0,7.43-2.08,14.14-6.19a32.26,32.26,0,0,0,2.37-4.92l-9.48,1.93Zm-3.74-5.62a18.68,18.68,0,0,0,1.27,2.48c8-6.55,16-10.63,23.84-12.15.22-.94.41-1.86.57-2.77-3.15,1.18-7.37,3.09-12.58,5.69a115.77,115.77,0,0,1-13.28,6.2Zm-1.54-6.8c.08.79.2,1.61.35,2.45,3.22-1.27,7.66-3.34,13.23-6.17a117.25,117.25,0,0,1,14-6.3V319.2c-14.75,6.12-19.28,9.13-20.45,10.58l-.07.08a1.83,1.83,0,0,1-2.75,0,2.33,2.33,0,0,1-.53-.83A23.1,23.1,0,0,1,354.64,331Zm12.55-10.51c-.62.85-1.25,1.66-1.89,2.42,3.43-1.83,8.72-4.38,16.9-8-.05-.43-.11-.84-.18-1.22A130.56,130.56,0,0,0,367.19,320.48Zm-3.07-11c-4.42,3.69-7.25,7.35-8.43,10.9a14.18,14.18,0,0,0-.4,1.44A21.16,21.16,0,0,0,364.12,309.45Zm15.94.84.32-.11-.11,0Zm-7.57-6.72a33.33,33.33,0,0,1-.74,6.58,48.14,48.14,0,0,0,5.54-2.92l1-.61A9,9,0,0,0,372.49,303.57Z" transform="translate(-64.42 -170.98)"/><path class="cls-1" d="M601.47,399.3a3.71,3.71,0,0,1-2.63-1.27h-.16a3.76,3.76,0,0,1-1.95-.52c-4.48-2.35-11-4.38-19.41-6-10.22-1.91-16.89-3.5-20.41-4.86a3.48,3.48,0,0,1-2.43-2.52,4.86,4.86,0,0,1-.2-1.57,113,113,0,0,0-.23-13.45c-2.27.8-7.9,3.19-21.07,9.38a4.47,4.47,0,0,1-2,.54,3.25,3.25,0,0,1-3-2,6.16,6.16,0,0,1-1.9-2l-.37-.61a3.55,3.55,0,0,1-2,.65c-1.33,0-2.41-.89-3.21-2.65-1.41-3.1-3-7.12-4.84-12-1.47,1.51-4.47,3.67-9.14,6.61-3.06,1.9-5.55,3.36-7.41,4.36a4.43,4.43,0,0,1-1.51,1.63,3.91,3.91,0,0,1-1.19,3,3.44,3.44,0,0,1-2.31,1,3.56,3.56,0,0,1-1.66-.44c-4-1.75-9.86-3.91-17.3-6.42-7.95-2.66-13.9-4.84-17.66-6.5a4.08,4.08,0,0,1-2.78-2.58,3.74,3.74,0,0,1,1-3.19v-2.12c0-2.7.11-6.67.33-11.82.9-18,1.44-27.44,1.67-28.82.66-5.7,1.89-13,3.66-21.76q3.48-18.06,4.14-21.55c1.54-9.35,2.83-16.08,3.83-20,2.07-8.71,3.12-15.22,3.12-19.32a3.41,3.41,0,0,1,1.89-3.24,3.36,3.36,0,0,1,3.19-2.18,5,5,0,0,1,1.32.2,90.7,90.7,0,0,0,10.78-6.88,76,76,0,0,0,6.38-5.07c.84-.76,1.48-1.33,1.95-1.72a3.74,3.74,0,0,1,.32-3.15,3.2,3.2,0,0,1,3.16-1.87l.46,0H502l.06,0A97.29,97.29,0,0,0,516,210.05c3.89.25,6.85.38,8.83.38a11.24,11.24,0,0,0,2.58-.16,4.43,4.43,0,0,1,1.71-.37c1,0,2.42.45,3.34,2.5a2.9,2.9,0,0,1,.95.59c3.84,3.28,8.31,10,13.62,20.5,2.84,5.94,4.61,10.41,5.35,13.55,2.92-3.36,7.63-6.83,14-10.33,6.53-3.5,9.5-5.16,10.83-5.93a3.41,3.41,0,0,1-.35-3.45,3.09,3.09,0,0,1,3.19-2.56,6.23,6.23,0,0,1,.72,0c1.31.18,2,.3,2.48.41a4.1,4.1,0,0,1,1.48-.29,3.94,3.94,0,0,1,2.68,1.11c2.22.43,5.06,1.06,8.45,1.88a1.86,1.86,0,0,1,.83-.21,1.6,1.6,0,0,1,1.39.84c.66.11,1.39.25,2.17.42,12.94,3.39,14.71,5.74,14.72,7.6a4.14,4.14,0,0,1,.7-.06,4.65,4.65,0,0,1,2.69.91c.77.52,2,1.77,1.21,4.27l0,.1c-.4.93-.62,3.46.57,10.21.22,1.34.6,3.49,1.16,6.46.43,2.73.82,4.89,1.15,6.45,3.31,19.84,5.49,32.1,6.47,36.48,2,8.38,4.34,21.35,7,38.55l4,25.71,3,12.53a3.9,3.9,0,0,1-.47,3.4,3.65,3.65,0,0,1-3,1.17H639c-3.48,2.56-9.35,5.09-17.92,7.73-8,2.28-13.82,4.89-17.24,7.77A3.53,3.53,0,0,1,601.47,399.3Zm1.26-9.92,1.22-.82-.53-.23a2.05,2.05,0,0,1-.91-.45C602.6,388.5,602.67,389,602.73,389.38Zm-40.62-9.18a133.52,133.52,0,0,0,17.07,3.87,104.73,104.73,0,0,1,16.15,4.43l-.06-.44c-.13-.53-.51-2.17-1.15-4.94-.35-2-1.08-7.45-2.18-16.36-1.87-16.09-3.66-29.36-5.3-39.44-2.32-15.78-3.83-28-4.49-36.41-1.08-14.41-3.4-23.64-6.87-27.43a3.54,3.54,0,0,1-1.08-1.93c-1.64-.49-3.56-1-5.74-1.59a44.94,44.94,0,0,0-6.85-1.48l-2.42-.32a1.52,1.52,0,0,1-.72-.18,3.61,3.61,0,0,1-.85.11A3.2,3.2,0,0,1,555,256.7l-.49.63,0,0c-.32.31-1.48,1.59-3.45,3.78-2.38,2.82-5.55,6.82-9.4,11.88-2.08,2.62-4.81,6.18-8.13,10.61-4.39,5.82-7.12,9.49-8.1,10.92a3.72,3.72,0,0,1-3,1.53,4.73,4.73,0,0,1-1.71-.34,3.71,3.71,0,0,1-2.59-3.06,1.83,1.83,0,0,0-.25-.32l-.13-.14-.08-.17c-2.43-5.64-5.57-14.38-9.32-26-3.59-11.53-6.56-20.09-8.86-25.47a2.75,2.75,0,0,1-.48-.8c-1.39-.19-3.67-.6-6.92-1.25-.17,0-.56-.07-1.69-.27a2.1,2.1,0,0,1-.89.21,1.73,1.73,0,0,1-1.38-.69c-2.81-.56-5.45-1.19-7.88-1.89a72.42,72.42,0,0,1-2.49,14.17c-1.53,6.35-2.87,12.86-4,19.33h-.05c-.08.91-.47,3-1.45,8.32-.76,4.32-1.54,8.57-2.32,12.61-1.69,8.89-2.94,15.78-3.81,21-.55,3.48-1.21,13-2,28.42-.41,9-.5,11.44-.5,11.89v2.66c-.14,1.54-.16,2.19-.16,2.48V357a4.71,4.71,0,0,0,.05.62c3.25,1.38,7.79,3,13.52,4.9s10.21,3.43,13.32,4.71a4.43,4.43,0,0,1,1.08-.79c-1.19-16.25-1.5-25.8-.93-29.18,1.22-8.16,1.57-10.62,1.65-11.24.82-6.66.06-8.56-.36-9.1a3,3,0,0,1-.9-3.75,4,4,0,0,1,2.46-2.28,4.18,4.18,0,0,1,2.6-2.27,4,4,0,0,1,1.22-.2,4,4,0,0,1,2.82,1.26l.06.06.05.07c.24.34.87,1.23,17.57,37.93a1.9,1.9,0,0,1,.67,1.21c2.51,5.45,5.48,12,8.83,19.39a2.92,2.92,0,0,1,1.3-.41c.85-1.53,3.68-6.95,11.55-22.5,2.06-4.11,5-11.78,8.85-22.77v-6a3.34,3.34,0,0,1,3.67-3.66H553a3.85,3.85,0,0,1,3.77,4.15v.33a1.73,1.73,0,0,0,.11.51l.05.16v1a9.42,9.42,0,0,1-.36,2.23,10,10,0,0,0-.3,2.08c.11,5.65,1.16,15.2,3.14,28.39C561.34,363.74,562.24,373.26,562.11,380.2Zm71-10.33c-3,1.73-7.23,4.54-12.6,8.37a119.21,119.21,0,0,1-11.95,7.93l9.25-2.9c8.44-2.75,14-5.07,16.45-6.91C634,374.57,633.57,372.4,633.15,369.87Zm-31,15.41a1.81,1.81,0,0,1,1.47-.88,98.81,98.81,0,0,0,14.59-9.28,130.11,130.11,0,0,1,14.24-9.36c-.47-2.56-1-5.41-1.48-8.53l-.27.24C613.66,370.59,604,379.4,602,383.66l0,0C602,384.27,602.09,384.8,602.16,385.28Zm-1-7.76c3.72-4.45,12.72-12.12,27.32-23.29a2.08,2.08,0,0,1,1.28-.49,1.46,1.46,0,0,1,.67.15q-.45-2.82-.92-5.88c-1.54,1.1-3.84,2.71-7,4.86a85.65,85.65,0,0,0-8,6.06c-9.71,8.36-12.42,12.22-13,14a1.74,1.74,0,0,1-.84,1.09C600.87,375.29,601,376.46,601.17,377.52Zm-3.57-29.68c.33,2.71.65,5.65,1,8.75.59,4.41,1,8.07,1.37,11.07a73,73,0,0,1,10.26-10.24c2.22-1.88,5.42-4.3,9.53-7.19s7.18-5.12,9.1-6.57c-.1-.61-.23-1.47-.39-2.59s-.49-3.07-.91-5.61c-12.17,7.84-20.34,14.84-24.31,20.79a1.89,1.89,0,0,1-1.64,1,2.6,2.6,0,0,1-1.13-.29,1.82,1.82,0,0,1-1-1.27,2,2,0,0,1,.49-1.58c4.37-6.45,13.43-14.17,26.88-22.91q-.76-4.21-1.43-7.93c-3.52,2.52-9.42,7.27-17.55,14.15C600,344,598,346.76,597.6,347.84Zm-58.2,15.28c-.31.61-.58,1.15-.8,1.62q-.72,1.36-1.44,2.85a91.11,91.11,0,0,1,12.44-5.43,3.84,3.84,0,0,1,3.36-2.29c-.13-1-.28-2-.44-3.15-7.89,5.13-10.07,6.56-10.58,6.9h0a1.84,1.84,0,0,1-1.08.38A1.73,1.73,0,0,1,539.4,363.12Zm-26.31-10.2c-6.38,3.05-10.8,6.07-13.16,9l1.46-.79c6-3.64,7.57-5.11,7.95-5.67l.07-.08a3.79,3.79,0,0,1,2.93-1.41,4.14,4.14,0,0,1,.84.09l.34.07C513.38,353.72,513.24,353.32,513.09,352.92Zm29.48,4.22-1.13,2.07,4.67-3c3.27-2.07,4.94-3.18,5.78-3.77-.16-1.14-.27-1.79-.34-2.15l-1.19.79a12.6,12.6,0,0,0-3.55,2.74,1.8,1.8,0,0,1-1.57.93,2.09,2.09,0,0,1-1.09-.33l-.15-.09C543.56,355.17,543.08,356.11,542.57,357.14Zm-44.14-2.36c.06.81.14,1.73.24,2.77,2.82-2.69,7.11-5.43,13-8.32-.56-1.39-1.09-2.74-1.6-4C502.06,351.77,499.29,354.05,498.43,354.78Zm-.54-5.89L498,350c1.87-1.52,10.4-8.51,10.4-8.51l.2-.13c-.28-.72-.56-1.41-.82-2.09a48.36,48.36,0,0,1-9.9,6.29Zm52.36-7.17L547,348.48c1.08-.77,2.38-1.58,3.89-2.45C550.63,344.4,550.43,343,550.25,341.72Zm46.56.24c1.54-1.53,4.05-3.77,7.59-6.77,9.8-8.31,16.56-13.76,20.11-16.23-1.17-6.07-2.41-11.93-3.69-17.45l0-.11v-.11s0-.24-.21-1.15A88.46,88.46,0,0,0,604,315.54c-7.24,8.44-8.86,10.88-9.19,11.58q.16,1.31.33,2.58c3.67-4.11,11.58-10.87,24-20.54a1.88,1.88,0,0,1,1.32-.58,1.9,1.9,0,0,1,1.33.58,1.71,1.71,0,0,1,0,2.86c-14.42,11.32-23.1,19.12-25.8,23.17Zm-98-5.15c-.21,1.4-.39,2.75-.55,4.05,3.73-1.95,6.38-3.83,7.9-5.59-.47-1-.92-2-1.34-2.9l-2.53,1.9C500.08,335.85,499.19,336.52,498.82,336.81Zm1.66-13c-.19,1.84-.51,4.38-1,7.66l3.58-2.73Q501.75,325.95,500.48,323.79Zm92.29-10.71c.33,2.4.71,5.08,1.16,8.12l7.21-8.3c6.24-7.32,12.54-13,18.72-16.91-.73-3.9-1.82-10.16-3.25-18.63a151,151,0,0,0-12.85,10.37c-6.77,6.77-11,11.67-12.45,14.57.15,1.54.37,3.25.63,5.12.22-.28.44-.59.68-.92,1.07-1.3,1.85-2.19,2.43-2.77,2.74-2.64,4.73-4.68,5.91-6.08,5-5.59,9.18-9.44,12.33-11.47a2.12,2.12,0,0,1,1.12-.35,2,2,0,0,1,.94,3.71c-1.67,1.14-6.25,5.57-13.57,13.11-.76.76-2.09,2.2-3.95,4.28-1.42,1.61-2.63,2.92-3.58,3.91a2.26,2.26,0,0,1-.26,1.34l0,.06,0,.05A1.78,1.78,0,0,1,592.77,313.08Zm-3-23.14c.17,1.46.4,3.55.7,6.29a101.58,101.58,0,0,1,8.88-9.59c2-2,7.4-6.4,16.51-13.46-.2-1-.43-2.25-.71-3.91-.32-2.06-.6-3.67-.82-4.78l-.51-3.24c-.39.45-2.22,2.44-11.89,12.53-3.16,3.38-5.49,6-6.91,7.73-3.51,4.21-3.75,5.26-3.77,5.42a2.15,2.15,0,0,1-.93,1.92l-.05,0-.06,0a3.47,3.47,0,0,1-.5.2C589.77,289.47,589.78,289.74,589.79,289.94Zm-68.26-9.64q.81,2.35,1.62,4.26c7.13-9.57,11.76-15.7,13.76-18.23,1.59-2,3.07-3.87,4.46-5.57-5.66,4.63-9.41,8.08-11.18,10.3C525.13,277.56,522.82,279.66,521.53,280.3Zm67.6,2.22a98,98,0,0,1,7-8.29c10.82-11.69,13.92-15,15-15.91a1.64,1.64,0,0,1,1.28-.63,1.75,1.75,0,0,1,.81.21c-.42-2.67-.75-4.67-1-6-5.14,4.37-12.94,13.76-23.22,28l-.05.06-.19.19Q589,281.25,589.13,282.52Zm-69-6.45a1.64,1.64,0,0,1,.67.14,28.44,28.44,0,0,0,3.86-4.25c2.46-3.24,4-5.12,4.56-5.72a140.72,140.72,0,0,1,13.52-11.69,1.9,1.9,0,0,1,1.18-.42h.24a.31.31,0,0,0,0-.08,3.47,3.47,0,0,1,.85-2.9,7.86,7.86,0,0,0-.3-2,2.12,2.12,0,0,1-1.33.43c-2,.07-6.25,2.11-14.51,11.44-5,5.62-8.4,8.95-10.44,10.17.54,1.8,1.08,3.45,1.63,4.92Zm66.3-7.9c.56,1.89,1.09,4.05,1.59,6.45,10-13.8,17.93-22.94,23.58-27.19l-.09-.61c-1.13.68-2.68,1.49-4.69,2.45l-1.56.92a1.55,1.55,0,0,1-.64.68c-2.62,2.08-6.14,5.27-10.47,9.5-2.4,2.28-4.29,4.12-5.63,5.46-.84.94-1.52,1.67-2,2.15A1.14,1.14,0,0,1,586.41,268.17ZM517,267.1c1.38-1.35,4.83-4.82,13-13.29,5.21-5.44,9.56-8.14,13.3-8.26h0l.37,0c-.35-1-.82-2.23-1.41-3.61-1.62,1.16-3.94,2.62-7,4.45a59.52,59.52,0,0,0-7.84,5.06,136.68,136.68,0,0,0-11.94,10.78,4.21,4.21,0,0,0,.17.47.78.78,0,0,0-.31-.32l-.29.28-.41-.41a1,1,0,0,0-.79.86l2-.28C516.18,264.27,516.6,265.69,517,267.1Zm67.45-4c.12.23.25.48.37.74.73-.7,2-1.92,4.07-4l.51-.48a40.52,40.52,0,0,0-4.77,3.59Zm-72.36-11.13c.64,1.91,1.3,3.95,2,6.14a117.93,117.93,0,0,1,10.7-9.49A75.27,75.27,0,0,1,533,243.2c3.32-2,5.89-3.62,7.63-4.9-.38-.78-.74-1.55-1.07-2.3s-.77-1.51-1.2-2.33a236.33,236.33,0,0,1-25.89,18A1.41,1.41,0,0,1,512.11,251.93Zm66.56,2.55c.47.15.87.3,1.2.44a4.83,4.83,0,0,1,1.41-.22,5,5,0,0,1,.85.08c1.72-1.07,8.89-5.42,14.93-9.09h0c.39-.25,1.71-1,7.19-3.84,1.38-.75,2.65-1.47,3.76-2.13l.15-.09-.28-.1c-.61-.24-1.54-.56-2.82-1-1-.34-2.08-.68-3.36-1a1.75,1.75,0,0,1-.7,1.05C592,246.42,584.46,251.77,578.67,254.48Zm-8.14-2,3.35.74a2,2,0,0,1,1.26-1.44c5.36-2.1,12.85-7.27,22.27-15.36l-1.38-.32c-1.22-.31-2.52-.61-3.9-.91C580.86,242.43,573.6,248.25,570.53,252.46Zm-10.46-2.16q.63.09,1.38.24c1.31.21,3,.53,4.95,1a1.93,1.93,0,0,1,.35-.75c3.21-4.59,9.8-10.12,20.13-16.85l-.91-.2c-2.62,2.66-7.21,5.59-14,8.92A58.62,58.62,0,0,0,560.07,250.3Zm-50.53-5.7c.42,1.12.86,2.33,1.31,3.62a244.51,244.51,0,0,0,25.69-18l0,0c-.76-1.4-1.48-2.67-2.17-3.81C532.53,228.11,524.41,234.07,509.54,244.6Zm-1.85-4.53c.11.24.21.49.32.76,13.82-9.75,21.72-15.6,23.51-17.38a2,2,0,0,1,.67-.47c-.39-.55-.76-1-1.12-1.46-1.63,2.21-5.24,4.84-11,8-1.69,1.05-3.9,2.6-6.52,4.57-1.11.77-2.33,1.66-3.65,2.65a16.13,16.13,0,0,0-1.44,1.29A4.06,4.06,0,0,1,507.69,240.07Zm-9.29-7.72c.69.1,1.34.18,1.93.24a81.77,81.77,0,0,0,9.39-6.57,85.7,85.7,0,0,1,10.1-6.57,2.19,2.19,0,0,1,1-.24,1.83,1.83,0,0,1,.62.1c.63-.45,1.1-.81,1.45-1.08-1.08-.07-2.36-.13-3.8-.2-1.6,1-6.45,4.38-14.44,10.09-.94.59-2.27,1.47-4,2.66Zm-6.16-1.22c.25,0,.51.05.79.1,1.17-.75,2.72-1.79,4.62-3.09,2.4-1.64,4-2.79,4.73-3.42l9.9-7-.73,0c-.9.5-2.72,1.49-5.56,3l-3.58,1.95-1.93,1.45a47.44,47.44,0,0,0-4.72,4.08C494.38,229.36,493.2,230.34,492.24,231.13Z" transform="translate(-64.42 -170.98)"/><path class="cls-1" d="M787.29,405.33a187.6,187.6,0,0,1-19.91-1,3,3,0,0,1-.77-.11,3.51,3.51,0,0,1-2.25.81,4.26,4.26,0,0,1-1.41-.26c-2.26-.71-5-2.87-8.36-6.57a137.33,137.33,0,0,1-9.21-12.23c-5.68-9.13-8.79-15.51-9.5-19.46h-1.61a43.16,43.16,0,0,1-1.53,8.54,161.74,161.74,0,0,1-4.31,16.41A3,3,0,0,1,725.3,394c-.11,0-3.19-.12-20.27-.83h-1.32a83.26,83.26,0,0,0-11.77,1,80.72,80.72,0,0,1-11.2,1c-4.82,0-7.93-.81-9.5-2.48a3.69,3.69,0,0,1-3-2.08,2.68,2.68,0,0,1-.37-.81c-3.2-2.64-7.48-8.58-13.09-18.14-2.43-4.09-4.56-7.9-6.33-11.33-2.92-5.69-1.28-8.34.64-9.57a1.58,1.58,0,0,1,.76-.3c4.29-9.28,11.27-31,20.76-64.51,8.84-31.13,16-53.91,21.29-67.73a3.78,3.78,0,0,1,.39-3.36,4.19,4.19,0,0,1,3.5-1.79c1.37,0,2.72,0,4.07,0,4,0,8.09-.13,12.12-.37,2.45-.12,4.77-.17,6.91-.17s4.15.05,6,.17c5.19.19,9.14.29,11.72.29a25.38,25.38,0,0,0,3.32-.12,75.4,75.4,0,0,1,8.16-.61,13,13,0,0,1,3.2.3,17.22,17.22,0,0,1,8.81,6.14c2.26,2.71,6.2,9,12,19.21a2.61,2.61,0,0,1,.46,1.18,1.33,1.33,0,0,0,0,.19h.09a3.87,3.87,0,0,1,2.93,1.46,3.65,3.65,0,0,1,.82,3.6c.07.18.14.36.21.56l.05.16v.16a4.3,4.3,0,0,0,.42,1.6,49.06,49.06,0,0,0,2.22,5.41.52.52,0,0,0,.07.15l6,13c3.32,7.2,7.19,18.24,11.5,32.81,4.29,14.88,9.65,31.88,15.91,50.56,2,5.86,4.78,13.61,8.28,23A79.28,79.28,0,0,1,826,387.85a5.13,5.13,0,0,1,.52,1.48,16.57,16.57,0,0,1,0,3.45,3.64,3.64,0,0,1-3,3.26,2.77,2.77,0,0,1-.78,1.49c-4.07,4.42-12.59,6.91-26,7.6C793.51,405.26,790.35,405.33,787.29,405.33Zm-16.4-8.59a151.75,151.75,0,0,0,16.34.88c2.12,0,4.26,0,6.37-.13A129.45,129.45,0,0,0,808.23,396c5.35-1.17,7.45-2.39,8.26-3.2a4,4,0,0,1,2-1.31l-.42-6.56c-1.3-3.34-3.29-8.34-6.08-15.27-2.1-5.31-4.9-13.37-8.32-23.95-4.95-15.63-10.48-33.38-16.43-52.77-2.62-9-4.67-14.94-6.07-17.76-.8-1.94-1.74-4.14-2.84-6.68-1.91-3.89-2.76-5.63-3.09-6.49l-.06,0c-2.92-6.51-4.73-10.89-5.52-13.38a23.76,23.76,0,0,1-1-3.94l-13.2-.17c-4.72-.1-7.88-.47-9.65-1.1a32.87,32.87,0,0,1-9.13,1.12,64.13,64.13,0,0,1-6.52-.36c-8-.77-13.13-1.16-15.16-1.17-3.81,10.31-7.94,26.4-12.29,47.82-1.28,6.29-2.58,12.37-3.87,18.08a1.67,1.67,0,0,1,.36,1.31,2,2,0,0,1-1.09,1.35c-1.48,6.21-3.14,12.24-4.92,17.93a1.73,1.73,0,0,1,.1,1.31,1.58,1.58,0,0,1-.68.83c-.62,2.16-1.25,4.15-1.88,5.92-.44,2.11-2.51,8.65-9.61,31.17-.66,2.29-1.38,4.83-2.15,7.59-1.2,4.2-1.43,5-1.5,5.19a36.29,36.29,0,0,0-.77,4.94,4.8,4.8,0,0,1,.86.83,6.83,6.83,0,0,0,2.07.18c1.25,0,3-.1,5.09-.29,1.3-.11,3-.32,5.25-.66a46.81,46.81,0,0,1,5.22-.67,60.34,60.34,0,0,1,7.18-.38c2,0,4.3.07,6.72.21,6.07.4,10.31.62,12.63.66,1.64-5.55,2.74-9.37,3.26-11.36,1.93-8.93,1.42-10.43,1.29-10.64a3.73,3.73,0,0,1-.48-3,3.18,3.18,0,0,1,3.38-3.16,3.31,3.31,0,0,1,.61-.06,2.49,2.49,0,0,1,1.17.27,21.73,21.73,0,0,0,4,.33,50.42,50.42,0,0,0,6.75-.53,86.64,86.64,0,0,1,10.35-1l.8,0h0a3.28,3.28,0,0,1,1.9.57,3.11,3.11,0,0,1,2-.69,4.32,4.32,0,0,1,2,.57,3.67,3.67,0,0,1,2,4.85c-.47,1.84-.1,6.61,4.47,18.57C768.29,388.93,770.15,394.08,770.89,396.74ZM761,393.5l1,1.06c-.14-.44-.29-.9-.45-1.37l0,0C761.31,393.3,761.14,393.39,761,393.5Zm-4.8-5.9c.77,1,1.51,2,2.2,2.9l1.3-.86.1,0a2.35,2.35,0,0,1,.43-.13c-.11-.3-.22-.61-.34-.92-.35-.94-.69-1.83-1-2.65A6.44,6.44,0,0,1,756.17,387.6Zm-2.53-3.42c1.92-.2,2.44-.69,2.58-.9s.2-.29,0-.88a1.86,1.86,0,0,1,0-1.72,1.67,1.67,0,0,1,.43-.49,12.63,12.63,0,0,1-.46-1.28c-.11-.26-.21-.53-.31-.79a25,25,0,0,1-3.85,3l-.32.19c.52.89.72,1.25.81,1.41Zm-85.07-5.34c.3.42.59.79.84,1.12.17-.61.34-1.26.54-1.94l-.32.19A7.17,7.17,0,0,1,668.57,378.84Zm79.83-3.16c.42.78.86,1.56,1.3,2.33.19-.14.42-.31.67-.53l.09-.06a15.73,15.73,0,0,0,3.59-3.11l.07-.08a2.68,2.68,0,0,1,.44-.36c-.23-.8-.43-1.57-.59-2.28-.68.46-1.52,1.07-2.52,1.82A22.77,22.77,0,0,1,748.4,375.68Zm-82-.75a1.73,1.73,0,0,1,.78.19c.38-.23,1.13-.73,2.6-1.82q1.13-.84,1.92-1.35c.39-1.18.74-2.27,1-3.27.22-.77.55-1.88,1-3.33l.23-.76c-6.92,3.34-9.78,4.84-10.94,5.51.28.45.53.91.75,1.35.8,1.25,1.57,2.42,2.29,3.51Zm79.63-3.37a6.83,6.83,0,0,1,.47.63,31.29,31.29,0,0,0,3-2.18c1.54-1.18,2.7-2,3.52-2.55-.07-.52-.12-1-.16-1.5-.65.45-1.6,1.13-3,2.15a17.67,17.67,0,0,1-4.23,2.72Zm-2.13-5.87a10.71,10.71,0,0,0,.38,1.52,2,2,0,0,1,.44-.09l.37-.28c.36-.25.73-.51,1.16-.83l0,0,1.08-.78C746.33,365.38,745.18,365.52,743.92,365.69Zm-85.74-3.83c1,1.87,2,3.63,3,5.25,1.81-.17,4.06-1.16,6.7-3a76.7,76.7,0,0,1,7.62-4.73l.18-.08c.56-1.72,1.21-3.77,1.93-6.11-14.52,6.77-17.36,8.25-17.74,8.52a1,1,0,0,0,.3-1.05l-.83.27.19,1-.1,0h-.06l-.36,0a1.83,1.83,0,0,1-.8-.17Zm-3-4.78c.4.64.88,1.44,1.46,2.42.25.42.46.75.63,1a.28.28,0,0,1,0-.09,1.81,1.81,0,0,1,1.47-2.23,29.81,29.81,0,0,0,10-4c5.48-3.36,8.66-5.22,9.72-5.69l.1,0a1.81,1.81,0,0,1,.61-.1c.42-1.48.82-2.88,1.22-4.19-21.45,10.34-21.92,10.46-22.18,10.52a2.13,2.13,0,0,1-.7.12,1.75,1.75,0,0,1-.94-.26l-.52,1.1-.08.15-.12.13a1,1,0,0,0-.14.22A5,5,0,0,1,655.21,357.08Zm6-14.43c-1,2.93-2,5.53-2.93,7.78a89.09,89.09,0,0,0,11.3-5.08c6.7-3.45,10.77-5.52,12.39-6.29a8.36,8.36,0,0,0,.28-1.13l.48.07-.53-.22c.5-1.42,1-3.06,1.62-4.9A64.48,64.48,0,0,0,673.66,337a117.39,117.39,0,0,1-11.74,5.52,2.06,2.06,0,0,1-.65.11Zm4-11.46c-.77,2.33-1.52,4.55-2.26,6.64,2-.92,5.39-2.51,10-4.76a53.6,53.6,0,0,1,12.27-4.46l2.26-7.54a56.57,56.57,0,0,0-9.37,5.59c-4.36,3.11-8.22,4.7-11.45,4.7-.34,0-.67,0-1-.05A2.58,2.58,0,0,1,665.23,331.19Zm2.87-9.05c-.54,1.78-1.09,3.51-1.62,5.19,1.07-.08,4.16-1.07,13-6.33,4.12-2.37,7.12-3.78,9.15-4.3l1-3.87A54.84,54.84,0,0,0,668.1,322.14ZM672,308.88q-1.12,3.83-2.2,7.41a58.87,58.87,0,0,1,20.86-7.6l1.08-4.5c-3.64,1.38-9.33,3.72-17,7a2.19,2.19,0,0,1-.84.18,2,2,0,0,1-1.74-1.08l-.05-.09,0-.11A2.38,2.38,0,0,1,672,308.88Zm2.35-8.13q-1.14,4-2.25,7.76a1.91,1.91,0,0,1,1.09-1c8.94-3.89,15.53-6.52,19.6-7.82.52-2.25,1-4.35,1.41-6.28-4.13,2.18-6.57,3.44-7.46,3.83-5.08,2.45-8.74,3.65-11.19,3.65A5.68,5.68,0,0,1,674.34,300.75Zm1.17-3.82.31,0c1.36,0,4.58-.81,12.21-4.68,1-.45,2.25-1.1,3.77-2s2.66-1.46,3.47-1.84l.06-.14c.65-3.41,1.32-6.71,2-9.87-1.38.56-3.21,1.35-5.46,2.35-2.74,1.32-4.93,2.33-6.48,3-3.35,1.44-5.62,2.33-6.88,2.72a30.78,30.78,0,0,1-1.2,3.84C676.77,292.44,676.16,294.65,675.51,296.93Zm6-21c-.57,1.94-1.16,4-1.78,6.14,1.19-.51,3.07-1.35,6-2.72l.1,0a49.61,49.61,0,0,0,5.34-2.43c2.36-1.12,4.28-2,5.73-2.53a2.06,2.06,0,0,1,.79-.16,1.69,1.69,0,0,1,.56.09q.56-2.4,1.11-4.68c-2.21.68-5,1.67-8.37,3C686.82,274.16,683.63,275.29,681.49,275.89Zm2-6.68c-.22.68-.43,1.39-.65,2.14,1.86-.66,4.58-1.67,8.13-3,3.81-1.45,7-2.52,9.48-3.2.29-1.12.55-2.16.78-3.11-2.13.78-4.87,1.91-8.18,3.35C688.8,267.13,685.59,268.42,683.47,269.21Zm3-10.32q-.74,2.44-1.64,5.57c1.82-.73,4.52-1.87,8-3.4,3.83-1.56,7-2.78,9.51-3.67.34-1.32.68-2.58,1-3.74C694.29,256.25,688.6,258,686.49,258.89Zm3-9.63c-.52,1.52-1,3.17-1.56,4.93l16.82-5c.65-2.13,1.28-4.11,1.88-5.92a3.89,3.89,0,0,1-.39.28c-6.54,3.78-12,5.69-16.18,5.69Zm2.73-8.78c-.43,1.43-1,3.08-1.55,4.9,2.91-.17,6.58-1.42,10.92-3.73a1.58,1.58,0,0,1-.11-.58,2,2,0,0,1,1.25-1.7q1.13-.68,2.37-1.29l-.89-1a1.17,1.17,0,0,1-.32,0,24.44,24.44,0,0,0-6,1.43A42.43,42.43,0,0,1,692.24,240.48Zm57.94-3.95a77,77,0,0,0,8,.22h4.42c-1-1.77-2-3.42-2.84-5-2.94.05-6.84,1.07-11.64,3A3.4,3.4,0,0,1,750.18,236.53Zm-30.45-1.15c2.37.1,5.23.29,8.64.55,2.84.21,5.48.32,7.84.33,10.61-4.64,17.56-7.33,21.12-8.18-.54-.82-1.06-1.57-1.55-2.27a1.87,1.87,0,0,1-1.78,1C744.05,226.91,732.53,229.79,719.73,235.38ZM696.49,228c-.88,2.38-1.82,5-2.81,8,.94-.3,2.13-.73,3.57-1.27a34.17,34.17,0,0,1,4.17-1.14l-.62-.78C699.05,230.76,697.61,229.16,696.49,228Zm12.06,2.21a55.12,55.12,0,0,0,3.84,4.21C728,227,741.8,223.12,753.55,223c-.09-.11-.19-.21-.28-.31-1.95-1.76-4.86-2.68-8.59-2.68h-.61c-.79.1-2.67.33-5.55.66h-1a2.33,2.33,0,0,1-.11.28,1.68,1.68,0,0,1-1.27.86c-1.87.55-4.38,1.22-7.45,2l-7.63,2C714.88,227.54,710.67,229,708.55,230.19Zm-4-4.81c.5.58,1,1.13,1.35,1.61a48.19,48.19,0,0,1,10.49-4.29l8-2,1.31-.35h-.94c-8.06,2.09-14.95,3.66-20.51,4.67Zm-4.16-4.54c.36.38.66.7.91.95l.1.09a4.29,4.29,0,0,1,1.91-.54,1.28,1.28,0,0,1,.48-.09,1.18,1.18,0,0,1,.37.05l2.34-.46Zm56.3,114.47-.45,0c-6.88-.79-11.78-1.33-15-1.65-1.17.11-2.93.38-5.24.8a2.74,2.74,0,0,1-.74.1,3.52,3.52,0,0,1-2.44-1.12,3,3,0,0,1-1.34-3.32c1.87-10,3.38-17.44,4.48-22.08,2.18-8.36,4.28-13.35,6.45-15.28l.1-.09.12-.06a5.79,5.79,0,0,0,.64-.38l.18-.18.1-.06a10.41,10.41,0,0,1,2-.92,4.39,4.39,0,0,1,1.32-.22,3.09,3.09,0,0,1,2.91,2.11,3.77,3.77,0,0,1-.37,4c1.76,13.09,5.21,23.91,10.25,32.17a4.56,4.56,0,0,1,.41,4.21l0,.1-.06.08A3.8,3.8,0,0,1,756.68,335.31Zm-16.82-10a.65.65,0,0,0-.12.24l0,.34c.38,0,.77-.06,1.16-.07A10.46,10.46,0,0,0,739.86,325.3Zm4.45-6.53a1.7,1.7,0,0,1,1.51.9c.16-.11.39-.28.7-.54l0,0c-.34-1.08-.68-2.15-1-3.19a15.29,15.29,0,0,1-3.28,2.24l-.16.06c.59.18,1.19.38,1.82.61A1.72,1.72,0,0,1,744.31,318.77Zm-.63-9.4-.87,3.78,1-.78.09,0a3.27,3.27,0,0,0,.49-.41c-.25-.95-.48-1.87-.69-2.75Z" transform="translate(-64.42 -170.98)"/><path class="cls-1" d="M860.73,395.6c-8,0-15-2.05-20.56-6.09-12.42-9.09-18-15.85-16.94-20.64a3.22,3.22,0,0,1-.73-2.22,3.54,3.54,0,0,1,1.55-2.46,51.91,51.91,0,0,0,10.05-11.85c3.19-5.47,5.8-8.79,8-10.11l.13-.08.15,0a9.83,9.83,0,0,1,2.23-.19h31a3.24,3.24,0,0,1,.56.05,7.24,7.24,0,0,0-.2-2.12l0-.06v-.06c-.84-6.73-4.64-12.17-11.3-16.19-1.93-1.07-5.14-2.62-9.51-4.59-4.53-2.1-7.85-3.72-9.87-4.85-13.09-7.56-20.18-19.83-21.08-36.48-.56-15,1.55-24.62,6.48-29.34,6.55-14.31,19.56-23,38.66-25.94l.07.17v0h.06c2.13-3.33,7-5.41,14.82-6.45a104,104,0,0,1,12.71-.75c2.5,0,5.1.08,7.72.24,8.65.68,16.06,2.91,22,6.62,10,6.24,15.95,10.92,18.12,14.28,1.12.09,2.74.69,3.08,3.37a3.77,3.77,0,0,1-2.46,4.37c-.19.07-1.54.75-3.36,9.56-1.8,8.14-2.11,9.75-2.14,10h-.78l.72.26a3.74,3.74,0,0,1-3.15,2.63l-1.07.45-.08,0-.09,0c-2.24.45-5.38.95-9.35,1.5l-.19,0-.2-.05a10.88,10.88,0,0,0-2.67-.35,9.87,9.87,0,0,0-5,1.41l-.6.3h-.24l-.59.14c-2.35.68-2.94.88-3.08.93v0l-.56.19a3.32,3.32,0,0,1-1.23,1.21l-.09.05-.1,0a27.62,27.62,0,0,0-6,2.82,2.07,2.07,0,0,1-1.42.6,2.24,2.24,0,0,1-1.34-.49l-.44,0a4.88,4.88,0,0,1-2.54-.75,13.67,13.67,0,0,1-4.24-.83,4.85,4.85,0,0,0-1.27,4.26,2.7,2.7,0,0,1,.83.82,1.63,1.63,0,0,1,.18,1.56,9.65,9.65,0,0,0,1.94,2c1.84,1.73,5.53,3.73,11,6a103.3,103.3,0,0,1,15.11,8.23c7.51,5.55,10.16,7.62,11,8.63a3.59,3.59,0,0,1,2.25,2.29c3.75,4,6.65,7,8.62,8.94l.17.17,2.89,8.85c4,12.47,4.37,22.54,1,29.92-2.8,6.15-4.44,9.65-5,10.69a9.2,9.2,0,0,1-3.5,4.2c-1.73,6.65-10,11.14-25.24,13.71-1.33.23-7.12,1.32-16.74,3.15-6.66,1.21-11.05,2.24-13.07,3.09a15.52,15.52,0,0,1-1.91.54,17.51,17.51,0,0,0-4.14,2.47c-.48.35-1,.73-1.51,1.17l0,0-.06,0a4,4,0,0,1-2.07.65,3.28,3.28,0,0,1-2.5-1.22A61.72,61.72,0,0,1,860.73,395.6Zm-29.19-24.9c.35.56.65,1,.89,1.31,1.46,1.67,3.11,3.38,4.86,5a65.76,65.76,0,0,0,10.59,8.15,26.5,26.5,0,0,0,11.84,2.39h0a60.28,60.28,0,0,0,12.5-1.5c6-1.43,10.49-2.45,13.57-3.11,1.86-1.32,4.52-3.34,7.93-6,10.75-8,16.41-18.4,16.85-31a1.82,1.82,0,0,1-.32-1.08,11.16,11.16,0,0,1,.17-1.4,50.3,50.3,0,0,0-.65-7.89c-2.56-15.43-10.2-25.84-22.72-30.93a3.92,3.92,0,0,1-1.39.25,4.51,4.51,0,0,1-1.85-.42c-16.51-8.78-19.63-12-20.55-13.7-4.6-7.6-4.59-14.88.06-21.62,3.79-5.58,9.78-8.41,17.81-8.41l1,0a23.92,23.92,0,0,1,10.08,2.44,45.64,45.64,0,0,0,7,3.59c.94-1.44,2.43-3.81,4.43-7A52.52,52.52,0,0,0,908,252c1.69-3.19,2.77-5.22,3.36-6.29-.52-.52-1.63-1.62-4-3.88a39,39,0,0,0-9-6.13c-7.55-3.91-14.91-5.89-21.88-5.89a37.08,37.08,0,0,0-5.06.35c-17.78,2.16-29.22,9.75-34,22.58l0,.1a5.21,5.21,0,0,1-2.42,2.35c-1.85,2.43-2.79,7.68-2.79,15.61s.93,14.49,3.08,19.87c3.53,8.45,8.95,14.47,16.09,17.88,18.21,8.81,21,10.33,21.55,10.7a28.57,28.57,0,0,1,10.52,17c1.72,7.47.42,13.9-3.86,19.1-3.55,4.24-7.88,6.38-12.87,6.38a21.34,21.34,0,0,1-5.93-.91,33.78,33.78,0,0,1-15.83-10.24c-.82,1.21-2.56,3.65-6.31,8.71a66.86,66.86,0,0,1-6.7,8.23A3.24,3.24,0,0,1,831.54,370.7ZM942,338.26c-3,4.12-9.4,11-19,20.47-7.44,7.33-13,13.77-16.59,19.18,1-.17,1.73-.33,2.17-.45l.14,0h.1c1.65-.75,3.52-2.51,5.54-5.24,3.91-5.11,4.86-6.2,5.24-6.58,7.64-7.31,13.49-12.42,17.37-15.2a2.21,2.21,0,0,1,1.16-.37,2,2,0,0,1,.94,3.7c-8,5.74-14.37,11.43-18.82,16.86-2.17,2.66-3.56,4.39-4.46,5.52L921.6,375c8.8-7.2,14.07-12.35,15.64-15.29a2,2,0,0,1,1.67-1.23,1.47,1.47,0,0,1,.56.11c.56-1.27,1.06-2.36,1.49-3.27l-.09-.05a24.57,24.57,0,0,0,2.56-13.07c-.74-7.67-1.93-13.25-3.56-16.59-2.21,1.67-7.55,8-15.88,18.76-.82.93-1.92,2.2-3.36,3.86s-2.6,2.8-3.28,3.59a47.57,47.57,0,0,1-2.2,9.46q3.74-3.84,10.16-10.27a153.54,153.54,0,0,0,13.51-15l0-.05,0,0a2.08,2.08,0,0,1,1.52-.67,2.33,2.33,0,0,1,1.19.35,1.76,1.76,0,0,1,.94,1.29A1.68,1.68,0,0,1,942,338.26Zm-68.35,10.87a16.88,16.88,0,0,1-6.1,4.94,8.68,8.68,0,0,0,6.58-4.87Zm-11.75,4.31a15.87,15.87,0,0,0,1.65.47,2.06,2.06,0,0,1-.25-.61,2.61,2.61,0,0,1-.11-.63A11.5,11.5,0,0,1,861.94,353.44Zm-7.83-4.76a31.79,31.79,0,0,0,3.79,2.77,1.72,1.72,0,0,1,1.76-1.4c.19,0,.83-.12,2.33-1.38l-3.41,0Zm13.46.05c-.67.73-1.28,1.35-1.83,1.88a10.18,10.18,0,0,0,2.92-1.85Zm50-12a80.12,80.12,0,0,1,.28,8.55,60.2,60.2,0,0,0,3.86-4.62c7-9.61,12.29-15.65,16.16-18.5l.07-.06a64.08,64.08,0,0,0-8.07-9.79,74.49,74.49,0,0,1-6.61,7.7c-3.68,3.87-6.11,6.45-7.23,7.68a32.39,32.39,0,0,1,.88,3.69c9-10.8,11.25-13.29,12.09-13.87a1.76,1.76,0,0,1,1.26-.54,2.12,2.12,0,0,1,1.09.33,1.84,1.84,0,0,1,.67,2.7,40.06,40.06,0,0,1-7.11,8.81,70.42,70.42,0,0,0-7.34,7.9Zm-4.94-17.29c.72,1.34,1.37,2.72,2,4.11,3.38-3.86,9.82-11.24,11.86-13.59-1-.74-2.08-1.6-3.21-2.57C921.49,309.13,917.94,313.17,912.62,319.49Zm-4.13-6.75a24.28,24.28,0,0,1,2.09,3.05c4.67-5.6,7.85-9.23,9.63-11-1.16-1-2.17-1.82-3-2.43A45,45,0,0,1,908.49,312.74Zm-7.85-8.68a45.49,45.49,0,0,1,5.46,5.62,41.45,41.45,0,0,0,7.89-9.53L911.93,299l-4.68-2.1c-.89,1.15-2.27,2.76-4.22,4.88l-1.36,1.36Zm-8.92-5.8a37,37,0,0,1,5.9,3.47l.82-.82,5.08-5.77c-2.24-1.13-3.92-2-5-2.6l-.81-.53a49.08,49.08,0,0,1-3.31,3.68A33.2,33.2,0,0,1,891.72,298.26Zm-11-4.12,5.17,2.7a4,4,0,0,1,.59-.16A2,2,0,0,1,888,296c.26,0,1.43-.48,4.82-4.15.49-.64,1-1.29,1.55-1.93a24.2,24.2,0,0,1-4.73-4.06c-.67.64-1.91,1.79-4.2,3.91C883,292.06,881.57,293.38,880.71,294.14ZM871,288.37a29.57,29.57,0,0,0,5.92,3.76c.69-.56,2.49-2.16,6.9-6.33,1.57-1.49,2.7-2.54,3.42-3.18-1.65-3.42-1.49-7.05.47-10.82C880.14,277.85,874.53,283.42,871,288.37ZM868.09,283a8.61,8.61,0,0,0,.63,1.83l4.77-6.74c-2.45,2.28-4.22,3.9-5.38,4.89Zm10-14.35a15.8,15.8,0,0,0-5.39,2.45A9.62,9.62,0,0,0,867.9,278q2-1.8,5.84-5.43Q876.14,270.32,878.06,268.64Zm6.22-.11c-2.11,1.61-4.81,4-8,7l-2.62,2.46,11.5-9.18Zm29.3-10.15c-.4.75-1.16,2-2.54,4.09.65-.14,1.34-.28,2.08-.41l.24-.3.13-.12.16-.07c3.44-1.62,10.83-6.32,21.94-14a41.32,41.32,0,0,1,1.51-5H937a53,53,0,0,0-21.65,15.09,1.77,1.77,0,0,1-1.42.75Zm20.63-5q-6.69,4.67-10.82,7.31c4.48-.35,7.63-.69,9.41-1C933.29,257.37,933.75,255.27,934.21,253.36Zm-13.7-6.71a11,11,0,0,1-.64,1.32c1.42-1.13,2.88-2.2,4.4-3.2-1,.38-2.13.8-3.25,1.26A5.77,5.77,0,0,1,920.51,246.65Zm-4.82-8.73.12,0a2.32,2.32,0,0,1,.76.32c4.38-2.89,5.15-3.45,5.28-3.56l.37.44-.15-.6c1.91-1,3.61-1.94,5.08-2.81-.95-.64-1.78-1.18-2.48-1.61-1.38.77-3.47,1.83-6.35,3.22-2.29,1.1-4.16,2.08-5.58,2.91.26.26.51.55.77.85s.73.71,1.08,1a2.37,2.37,0,0,1,1-.2Zm14.94-3.85c-.37.21-1,.59-2.21,1.29a30.41,30.41,0,0,1,3.27-.57ZM907.54,232q1.22.77,2.1,1.41c1.52-.93,3.53-2,6-3.17,2.19-1,3.86-1.83,5-2.42q-1.26-.66-2.58-1.23a2.11,2.11,0,0,1-.86.93l-.11.07-.13,0a41.73,41.73,0,0,0-5.45,2.58C910.06,230.89,908.72,231.49,907.54,232Zm-6.94-3.89,2.4,1.25.16,0c.88-.46,3.22-1.51,10-4.47a45.22,45.22,0,0,0-4.43-1C905.86,225.27,903.13,226.69,900.6,228.09Zm-12.16-4.71a49,49,0,0,1,7.82,2.64c1.49-.88,3.18-1.82,5-2.81-1.78-.06-3.5-.09-5.15-.09C893.41,223.12,890.82,223.21,888.44,223.38Z" transform="translate(-64.42 -170.98)"/><path class="cls-1" d="M1078.29,401a4.2,4.2,0,0,1-2.1-.59,388.35,388.35,0,0,0-76.86-21,3.73,3.73,0,0,1-3-2.75c-1.18-1.11-2-3.09-2.43-6a15.11,15.11,0,0,1-.17-1.7q-1-4.55-1.79-8.46a19.21,19.21,0,0,1-.86-3.61c-1.51-6-2.73-10.67-3.59-13.73a15.4,15.4,0,0,1-.85-2.72c-2-5.66-3-9.88-3-12.9v-.11a21.82,21.82,0,0,1,2.59-7.31,15.92,15.92,0,0,0,1.22-2.39,3.82,3.82,0,0,1,.21-.95,89.85,89.85,0,0,1,6.7-14.92c2.31-4.06,5-9.12,8-15.07a91,91,0,0,1,15.38-21.3c-1.4-.62-3.17-1.42-5.28-2.39a92.07,92.07,0,0,0-11.44-4.09c-1.54-.31-3.92-.74-7.22-1.31a54.47,54.47,0,0,1-9.13-1.6,4.19,4.19,0,0,1-1,.12,3.75,3.75,0,0,1-3.51-2.13l-.09,0-.18-.21a3.19,3.19,0,0,1-.69-1.68,68.4,68.4,0,0,1-3.63-11.45c-.33-1.54-.6-2.69-.82-3.45-1.07-3.75-1.79-6.67-2.15-8.69a2.21,2.21,0,0,1-.21-.91A12.61,12.61,0,0,1,972,226a4.41,4.41,0,0,1-.67-2.95,4,4,0,0,1,2-3l.1-.07.11,0a1.72,1.72,0,0,0,.32-.13l.11-.12.1,0a6.56,6.56,0,0,1,1.6-.55l3-1.6c11.66-5.83,20.69-10,26.87-12.32a3.69,3.69,0,0,1,3.62-2.56,4,4,0,0,1,3.08,1.51,5.56,5.56,0,0,0,4.55,1.81h.5a7.84,7.84,0,0,1,1.93.37c.93.21,1.69.37,2.24.48l3.52.84a138,138,0,0,1,16.52,5l4.63,1.49c1.72.54,4.61,1.37,8.58,2.47,12.12,3.45,20.89,7.19,26,11.12l.09.07,1.13-.56v1l.64.18c1.48.6,2.48,2.15,3.12,4.77a2.06,2.06,0,0,1,.22.7c.21,1.07.64,3.05,1.31,6.05l.65,2.63c1.86,8.44,1.86,8.53,1.86,8.7v.17s.12.48.89,2.7l.23.33a1.47,1.47,0,0,1,.32.6,3.88,3.88,0,0,1,.53,1.54,4.26,4.26,0,0,1,.51,3.09v0a3.59,3.59,0,0,1,1.5,3.16c0,2.38-1.19,3.88-3.37,4.26a17.39,17.39,0,0,0-1.74,2.7,2.66,2.66,0,0,1-.39.61c-1.08,1.84-2.33,4.29-3.72,7.28-1.24,2.37-3,5.68-5.16,10-1.75,3.3-3,5.84-3.79,7.58L1074,298.1c-4.27,8.65-7.39,15.28-9.25,19.67l-.14.42q-3.63,8.58-6.14,13.26l1.38,0a13.43,13.43,0,0,1,3.46.33h.24a17.18,17.18,0,0,1,3-1.41,2,2,0,0,1,.91-.25,1.7,1.7,0,0,1,1.61,1.35l0,.08,0,.08a2.46,2.46,0,0,1-.09,1.22c.67.14,1.34.29,2,.45,4.13.89,4.92,1.1,5.14,1.17,1.07.21,2.64.42,4.67.63,3.59.57,6.4,1.07,8.41,1.52l.18,0,.16.1a27.81,27.81,0,0,0,2.85,1.42c3.12,1.36,4.3,1.56,4.72,1.56h.83c2.91,0,4.13,1.21,4.63,2.35a3.19,3.19,0,0,1,1.17,2.16v.14a4.24,4.24,0,0,1-.22,1.31l0,.13-.08.12a1,1,0,0,0-.16.31h0c.16.32.34.77.59,1.4l0,.09,0,.09a28.76,28.76,0,0,0,.84,2.84,1.94,1.94,0,0,1,.77,1,1.84,1.84,0,0,1-.07,1.14c.12.47.32,1.22.6,2.23.79,2.6,1.33,4.51,1.66,5.82l0,.12v.13a17.88,17.88,0,0,0,.32,2.49l.82,4.28c.2,1,.5,2.25.88,3.72l.47.31.11.33.69.22,0,.76v.33a10.38,10.38,0,0,0,.44,1.51,3.48,3.48,0,0,1,.23,2.43c0,1-.55,2.09-1.78,3.23a5.68,5.68,0,0,1-3.48,1.6,4,4,0,0,1-1,.18c-1.35.53-2.55,1.05-3.57,1.56a66,66,0,0,0-7.86,4.42c-6.58,4.59-10.67,8-12.16,10.25C1081.89,399.67,1081.31,401,1078.29,401Zm-73.83-29.3a415.07,415.07,0,0,1,68,18.23c-.48-1.75-1-3.32-1.46-4.69a65.27,65.27,0,0,0-3.9-9.78,10.61,10.61,0,0,1-.87-1.91c-2.87-5.07-4.31-9-4.4-11.9a1.34,1.34,0,0,1-.06-.12l-.68-.34h-.26v-.91l-.42.77c-.2-.09-1.28-.43-6.2-1.69a11.18,11.18,0,0,1-1.75-.35q-1.37-.35-2.4-.69c-3.08-.77-5.4-1.3-7-1.63-1.23-.22-2.93-.62-5-1.17a81.34,81.34,0,0,1-9-2.35c-5.42-1.73-8.95-3.74-10.75-6.15a3.6,3.6,0,0,1-.67-3.14,3.51,3.51,0,0,1,1-1.9,4.14,4.14,0,0,1,.72-2.13c2.24-8.63,6.87-20.51,13.78-35.32,1.21-2.64,3.17-6.56,5.83-11.65l4.47-8.94a59.62,59.62,0,0,1,6.28-10.43,3.29,3.29,0,0,1,.17-1.8c-.54-1.68-1.17-4-1.88-7a67.61,67.61,0,0,0-2-6.51c-.22-.54-.55-1.49-1-2.8a37.93,37.93,0,0,1-3-8.06c-3.77-2.31-10.3-3.85-19.41-4.59a93.37,93.37,0,0,1-14.79-2.35c-2.58-.79-6.18-2.14-10.73-4a88.55,88.55,0,0,0-8.52-3.29,12.41,12.41,0,0,1-2.39-.84c-1.85-.55-3.35-1.06-4.54-1.52.46,1.92,1,3.92,1.54,5.95.23.8.51,2,.84,3.54a54.61,54.61,0,0,0,2.27,7.55,46.5,46.5,0,0,0,8.83,1.79,47.85,47.85,0,0,1,9.47,1.7q3.2,1.17,8.84,3.33a112.74,112.74,0,0,0,11.94,4.55,4.61,4.61,0,0,1,.88-.09c1.21,0,2.83.54,3.69,3.12.33,1,.57,1.75.69,2.23l.16.65-2.52,1.89c-7,5.4-13.41,13.71-18.95,24.7-1,2.1-2.58,5.1-4.83,9.16-4.13,6.87-6.89,12.3-8.24,16.16a1.37,1.37,0,0,1-.16,1.19,18.53,18.53,0,0,1-2,4.87c-1.64,2.4-2,3.72-2,4.43a81.92,81.92,0,0,0,2.61,10.73,14.23,14.23,0,0,1,.84,2.7c.89,2.79,2,7,3.32,12.61l.66,2.64c.88,3.64,1.5,6.55,1.83,8.66a32.35,32.35,0,0,1,1,4.4c.09.52.17.87.23,1.1a5,5,0,0,1,.39.45l.71.14Zm76.28,16a1.93,1.93,0,0,0,.55.07h.2a55.08,55.08,0,0,1,6.78-5.3,16.14,16.14,0,0,1,1.55-1.2l.06,0,.07,0a2.64,2.64,0,0,0,.48-.53l0-.06,0-.05a1.67,1.67,0,0,0,.31-.4l.06-.12.08-.09c2.28-2.61,4.89-5.94,7.74-9.88l0-.07,0-.05a2.13,2.13,0,0,1,1.52-.68h.08c-.43-1.86-.82-3.55-1-4.11-2,1.86-5,4.47-9.07,7.92a77,77,0,0,0-10,9.81,1.73,1.73,0,0,1-1,.67c.45,1.56.86,2.9,1.23,4.09Zm-3.28-9.74c.21.51.42,1.05.63,1.6a79.81,79.81,0,0,1,10.17-9.86,101.83,101.83,0,0,0,10.5-9.45c-.08-.31-.21-.76-.41-1.39A164.44,164.44,0,0,0,1077.46,378Zm23.86-4.78c-.78,1.11-1.52,2.13-2.2,3.05l1.14-.53,1.48-.6a2.73,2.73,0,0,1-.06-.34C1101.58,374.34,1101.46,373.79,1101.32,373.17Zm-26.28-1,.36.9c.13.25.26.53.4.85a173.53,173.53,0,0,1,21.44-19.12,2.82,2.82,0,0,0-.11-.32l-.1-.21V354a3,3,0,0,0-.26-.95c-.24-.71-.43-1.32-.57-1.84l-2.37,1.28A2,2,0,0,1,1093,354c-5.37,4.06-9,6.9-10.91,8.44-5.3,4.49-7.28,6.81-7.93,8v.22Zm-4.57-9.55c.17.57.5,1.49,1.11,3l.14.26.4.7a55.76,55.76,0,0,1,6.51-6.32c.52-.45,1.08-.94,1.7-1.45-.87.3-1.88.63-3.07,1A38.44,38.44,0,0,0,1070.47,362.62Zm-3.08-7.92c.94-.49,2.18-1.05,3.68-1.67a80.17,80.17,0,0,1,10.51-9.18l-1.57-.27a2.33,2.33,0,0,1-.38-.05,61.57,61.57,0,0,1-6.52,6c-2.64,2.15-4.65,3.85-6,5.06Zm-7.93-2.63a9.27,9.27,0,0,0,1.55.31h.07l.07,0c.6.17,1.24.35,1.91.52,1.46-1.42,3.63-3.31,6.47-5.64,2.2-1.81,4-3.35,5.35-4.59-1.14-.15-2.71-.47-4.79-1l-.1,0-.1,0a8.09,8.09,0,0,0-.87-.27,105.2,105.2,0,0,1-10.35,10.48Zm-11.7-2.92c1.09.33,2.68.75,4.73,1.26l1.46.24a103.21,103.21,0,0,0,10.63-10.21c-1.48-.26-2.69-.43-3.63-.5h-.11l-.47-.16h-.76C1054.63,344.4,1050.72,347.5,1047.76,349.15Zm38.74-4.3a2.4,2.4,0,0,1-.64.69q-2.68,1.9-5.14,3.95l.75-.32c1.53-.95,3.78-2.23,6.7-3.8l-.13-.07Zm-49.62,1.72c.87.15,1.91.38,3.17.69.43.11,1.19.27,2.27.49l.37.09a2.1,2.1,0,0,1,1.14-1.33l.09-.05.1,0c2.57-.71,5.87-2.85,9.83-6.37A136.2,136.2,0,0,1,1036.88,346.57ZM1053.73,322a2.4,2.4,0,0,1-.45.25c-1.69.67-6.84,4.25-21.51,17.06,1.81-.52,2.65-.74,3.08-.84a145.46,145.46,0,0,1,11.16-10,2.22,2.22,0,0,1,1.17-.38,1.85,1.85,0,0,1,1.61,1,2,2,0,0,1-.57,2.8,45.86,45.86,0,0,0-3.77,3l3-1.24A97,97,0,0,0,1053.73,322Zm-22.41,8c-.81,2.18-1.52,4.23-2.13,6.13,11.62-10.24,18.92-15.93,22.28-17.37a2.08,2.08,0,0,1,1-.29,1.86,1.86,0,0,1,1.61,1,2.83,2.83,0,0,1,.32,1.05c.87-1.88,1.78-3.91,2.71-6.07a13.78,13.78,0,0,1,1.36-3.06c.43-1.05.92-2.21,1.48-3.46-13.8,10.95-22.44,18.45-25.7,22.32a1.59,1.59,0,0,1-1.31.69,1.85,1.85,0,0,1-1.29-.58A2.38,2.38,0,0,1,1031.32,330Zm7.1-17.24q-3.17,7.11-5.52,13.11c4.42-4.52,13.53-12.26,27.18-23.09a2.27,2.27,0,0,1,1.41-.54,1.87,1.87,0,0,1,1,.26c1.64-3.49,3.58-7.5,5.83-12l.63-1.24c-.8.65-1.84,1.47-3.19,2.52q-5.43,4.28-16.33,12.73l-7.13,5.63C1039.93,311.86,1038.92,312.52,1038.42,312.8Zm8.73-17.84c-2.18,4.21-4,7.75-5.3,10.56l6.46-5c12.09-9.34,18.88-14.68,20.18-15.88a2.18,2.18,0,0,1,1.38-.55,2,2,0,0,1,1.51.76l.71-1.41c2.21-4.28,4-7.84,5.39-10.65-2.31,1.7-5.12,3.85-8.36,6.41-5.17,4.05-8.49,6.61-10.15,7.82C1051,292.85,1048.3,294.48,1047.15,295Zm10.38-17.27-.14.12c-1.88,1.68-4,4.92-6.23,9.64l-.2.39.23-.15c2.85-1.87,6.18-4.26,9.9-7.1,8.86-6.78,12.89-9.9,14.68-11.3q-3,.85-5.61,1.76a46.33,46.33,0,0,0-5.52,2.43,34.09,34.09,0,0,1-6,2.6,3.81,3.81,0,0,1-.94,1.29Zm22.16-9.32.06-.13-.15,0ZM1056.2,263c.26,1.16.62,2.49,1.07,4,12.19-7.19,20.09-13,23.5-17.19l.18-.25c-.27-1.11-.54-2.26-.82-3.44-.18-.69-.36-1.37-.51-2a126.82,126.82,0,0,0-10.93,9.51A61.08,61.08,0,0,1,1056.2,263Zm25.91-8.92a58.23,58.23,0,0,1-7.7,6.88l1.13-.31c1.92-.5,3.45-.87,4.58-1.11l.18-.18.31-.05c.5-.08.94-.17,1.31-.25v-.76h1.73c-.07-.14-.16-.3-.27-.5l0-.07,0-.07c-.33-.9-.62-1.69-.84-2.36a4.06,4.06,0,0,1-.2-.88Zm-29.15-.89a21.8,21.8,0,0,1,1.24,3l.94,2.82a62.9,62.9,0,0,0,11.52-8.91,154.58,154.58,0,0,1,12-10.35c-.06-.38-.11-.66-.15-.86a4.37,4.37,0,0,1-1.78-.39,8.39,8.39,0,0,0-1.78-.27,116.47,116.47,0,0,1-11.09,7.8C1058.52,249.49,1054.85,251.89,1053,253.21Zm-2.2-5.68a19.39,19.39,0,0,0,.63,1.95c1.65-1.13,4-2.67,7.06-4.66A37.86,37.86,0,0,1,1050.76,247.53ZM1040,237.1a29.69,29.69,0,0,1,5.18,2.06,6.39,6.39,0,0,1,1.72-.25h1a15.89,15.89,0,0,0,5.91-1.57l.19-.09h.09c.15-.05.61-.21,1.89-.75,1.1-.44,2.14-.88,3.13-1.32l3.94-2a51.26,51.26,0,0,1,6.28-2.45,80.44,80.44,0,0,0-10.3-4C1052,232,1045.6,235.47,1040,237.1Zm-9.29-2c1.19.18,2.32.38,3.4.58a1.75,1.75,0,0,1,1.48-1.55c5.31-.8,11.64-3.75,18.85-8.77-1.87-.56-3.6-1.11-5.17-1.62a2.56,2.56,0,0,1-.49.43c-1.6,1-4.42,2.6-8.38,4.69a61.27,61.27,0,0,0-7.94,4.85,15.27,15.27,0,0,1-1.74,1.39Zm-14.27-1.62c2,.27,4.41.54,7.32.8l1.33.13c.83-.54,2-1.41,3.43-2.57a21.51,21.51,0,0,1,3.77-2.74c1.36-.89,3.71-2.24,7-4,1.93-1.08,3.6-2,5-2.82l-2.65-.82-2.91-.92A157.64,157.64,0,0,1,1016.48,233.47Zm-8.12-1.8c.74.23,1.44.43,2.09.59a2.17,2.17,0,0,1,.71-.54,153.49,153.49,0,0,0,22.47-12.64l-5.81-1.86c-2,3.12-5.56,6.35-10.7,9.6A88,88,0,0,1,1008.36,231.67Zm-10.31-4q2.63,1.08,5,2c10-3.42,17-8,20.79-13.57-1.56-.39-2.93-.72-4.11-1-.45-.11-1-.22-1.61-.32s-1.32-.22-2.09-.38c-1.35,1.54-5.24,4.73-18.58,13Zm-12.3-4.3q1.44.51,3.42,1.11a23.73,23.73,0,0,1,3.94,1.15c11.5-7.41,16.4-10.79,18.42-12.33a10.9,10.9,0,0,1-1.21-.48,3.76,3.76,0,0,1-1.78.45,3.68,3.68,0,0,1-.66-.06c-4.78,1.85-10.3,4.26-16.42,7.16C990,221.26,988.1,222.27,985.75,223.41Z" transform="translate(-64.42 -170.98)"/></svg>